<svg aria-hidden="true" style="position: absolute; width: 0; height: 0; overflow: hidden;" version="1.1" xmlns="http://www.w3.org/2000/svg" xmlns:xlink="http://www.w3.org/1999/xlink">
<defs>
<symbol id="icon-back" viewBox="0 0 32 32">
<path fill="#fff" style="fill: var(--color1, #fff)" d="M17.787 25.333c-0.351-0-0.695-0.109-0.986-0.314s-0.52-0.496-0.654-0.837c-0.134-0.341-0.17-0.715-0.101-1.077s0.238-0.694 0.486-0.955l5.848-6.139-5.848-6.139c-0.17-0.172-0.305-0.378-0.398-0.605s-0.142-0.472-0.144-0.72c-0.002-0.248 0.043-0.493 0.132-0.722s0.221-0.437 0.388-0.612 0.365-0.314 0.583-0.407c0.218-0.094 0.452-0.141 0.688-0.139s0.469 0.054 0.686 0.151 0.413 0.24 0.576 0.418l7.104 7.457c0.333 0.35 0.52 0.824 0.52 1.318s-0.187 0.969-0.52 1.318l-7.104 7.457c-0.333 0.35-0.785 0.546-1.256 0.546z"></path>
<path fill="#fff" style="fill: var(--color1, #fff)" d="M7.131 25.333c-0.351-0-0.694-0.109-0.987-0.314s-0.52-0.496-0.654-0.837c-0.134-0.341-0.17-0.715-0.101-1.077s0.238-0.694 0.486-0.955l5.848-6.139-5.848-6.139c-0.17-0.172-0.305-0.378-0.398-0.605s-0.142-0.472-0.144-0.72c-0.002-0.248 0.043-0.493 0.132-0.722s0.221-0.437 0.388-0.612c0.167-0.175 0.365-0.314 0.583-0.407s0.452-0.141 0.688-0.139c0.236 0.002 0.469 0.054 0.686 0.151s0.413 0.24 0.576 0.418l7.104 7.457c0.333 0.35 0.52 0.824 0.52 1.318s-0.187 0.969-0.52 1.318l-7.104 7.457c-0.333 0.35-0.785 0.546-1.256 0.546z"></path>
</symbol>
<symbol id="icon-burger" viewBox="0 0 32 32">
<path fill="#fff" style="fill: var(--color1, #fff)" d="M25.412 9.333h-18.824c-0.333 0-0.652-0.14-0.887-0.39s-0.368-0.589-0.368-0.943 0.132-0.693 0.368-0.943c0.235-0.25 0.555-0.391 0.887-0.391h18.824c0.333 0 0.652 0.14 0.887 0.391s0.367 0.589 0.367 0.943c0 0.354-0.132 0.693-0.367 0.943s-0.555 0.39-0.887 0.39z"></path>
<path fill="#fff" style="fill: var(--color1, #fff)" d="M25.412 17.333h-18.824c-0.333 0-0.652-0.14-0.887-0.39s-0.368-0.589-0.368-0.943 0.132-0.693 0.368-0.943c0.235-0.25 0.555-0.39 0.887-0.39h18.824c0.333 0 0.652 0.14 0.887 0.39s0.367 0.589 0.367 0.943-0.132 0.693-0.367 0.943c-0.235 0.25-0.555 0.39-0.887 0.39z"></path>
<path fill="#fff" style="fill: var(--color1, #fff)" d="M25.412 25.333h-18.824c-0.333 0-0.652-0.14-0.887-0.39s-0.368-0.589-0.368-0.943 0.132-0.693 0.368-0.943c0.235-0.25 0.555-0.39 0.887-0.39h18.824c0.333 0 0.652 0.14 0.887 0.39s0.367 0.589 0.367 0.943c0 0.354-0.132 0.693-0.367 0.943s-0.555 0.39-0.887 0.39z"></path>
</symbol>
<symbol id="icon-goback" viewBox="0 0 80 64">
<path d="M4.408 27.477c-1.199 1.2-1.872 2.827-1.872 4.523s0.673 3.323 1.872 4.523l24.132 24.141c0.595 0.594 1.3 1.066 2.077 1.388s1.609 0.487 2.45 0.487 1.673-0.165 2.45-0.487c0.777-0.322 1.483-0.794 2.077-1.388s1.066-1.3 1.388-2.077c0.322-0.777 0.487-1.609 0.487-2.45s-0.165-1.673-0.487-2.45c-0.322-0.777-0.793-1.483-1.388-2.077l-13.21-13.21h49.216c1.697 0 3.325-0.674 4.525-1.875s1.875-2.828 1.875-4.525c0-1.697-0.675-3.325-1.875-4.526s-2.828-1.875-4.525-1.875h-49.216l13.21-13.21c1.2-1.201 1.874-2.829 1.874-4.526s-0.675-3.325-1.876-4.525-2.829-1.874-4.526-1.874c-1.698 0-3.325 0.675-4.525 1.876l-24.132 24.137z"></path>
</symbol>
</defs>
</svg>
