<svg aria-hidden="true" style="position: absolute; width: 0; height: 0; overflow: hidden;" version="1.1" xmlns="http://www.w3.org/2000/svg" xmlns:xlink="http://www.w3.org/1999/xlink">
<defs>
<symbol id="icon-goback" viewBox="0 0 80 64">
<path d="M4.408 27.477c-1.199 1.2-1.872 2.827-1.872 4.523s0.673 3.323 1.872 4.523l24.132 24.141c0.595 0.594 1.3 1.066 2.077 1.388s1.609 0.487 2.45 0.487 1.673-0.165 2.45-0.487c0.777-0.322 1.483-0.794 2.077-1.388s1.066-1.3 1.388-2.077c0.322-0.777 0.487-1.609 0.487-2.45s-0.165-1.673-0.487-2.45c-0.322-0.777-0.793-1.483-1.388-2.077l-13.21-13.21h49.216c1.697 0 3.325-0.674 4.525-1.875s1.875-2.828 1.875-4.525c0-1.697-0.675-3.325-1.875-4.526s-2.828-1.875-4.525-1.875h-49.216l13.21-13.21c1.2-1.201 1.874-2.829 1.874-4.526s-0.675-3.325-1.876-4.525-2.829-1.874-4.526-1.874c-1.698 0-3.325 0.675-4.525 1.876l-24.132 24.137z"></path>
</symbol>
</defs>
</svg>
