<svg width="1567" height="345" viewBox="0 0 1567 345" fill="none" xmlns="http://www.w3.org/2000/svg">
<g filter="url(#filter0_f_242_538)">
<path fill-rule="evenodd" clip-rule="evenodd" d="M814.052 86.114C687.111 87.1111 577.516 97.7047 467.121 107.968C341.778 119.621 153.695 126.398 130.925 149.625C107.377 173.645 302.156 187.592 367.635 209.451C419.174 226.655 388.746 249.151 470.327 262.925C557.914 277.713 688.303 286.361 814.052 284.824C936.227 283.331 1018.04 265.456 1122.27 254.958C1238.23 243.28 1393.54 239.477 1458.36 219.932C1526.83 199.289 1516.99 173.223 1466.17 151.267C1416.65 129.87 1305.77 114.271 1186.16 102.32C1073.95 91.1096 945.505 85.0814 814.052 86.114Z" fill="url(#paint0_radial_242_538)"/>
</g>
<g filter="url(#filter1_f_242_538)">
<path d="M940.395 230.385C1066.59 231.933 1261.06 220.443 1261.06 220.443C1261.06 220.443 1796.5 70.4184 1261.06 110.184C725.612 149.95 1100.72 120.9 995.818 125.548C926.701 128.611 887.916 130.781 817.673 131.874C762.146 132.739 730.54 133.132 675.157 131.874C620.246 130.628 536.6 125.548 536.6 125.548C536.6 125.548 618.569 136.253 675.157 140.912C729.124 145.355 782.044 143.623 817.673 149.046C869.754 156.973 865.178 166.218 865.178 166.218C865.178 166.218 775.564 167.643 718.704 166.218C667.114 164.924 638.578 163.108 588.794 159.938L588.064 159.891C534.371 156.473 502.631 155.043 453.465 149.046C396.178 142.059 322.826 125.548 322.826 125.548C322.826 125.548 388.652 150.063 453.465 159.891C500.817 167.071 534.762 168.033 588.064 172.544C649.034 177.704 683.47 180.569 746.415 184.293C820.974 188.704 863.717 190.768 940.395 192.427C1023.51 194.225 1154.17 192.427 1154.17 192.427C1154.17 192.427 1100.81 199.739 1063.12 202.368C989.191 207.525 865.178 202.368 865.178 202.368C865.178 202.368 689.296 195.523 588.064 184.293C518.635 176.591 481.937 170.938 421.795 159.891C342.543 145.334 305.409 134.962 243.65 116.51C187.136 99.6255 160.406 89.2127 116.969 70.4184C71.404 50.7031 18 18 18 18C18 18 48.2946 50.5684 81.3404 70.4184C118.922 92.9931 146.663 105.262 204.063 125.548C275.489 150.792 319.433 165.398 421.795 184.293C496.224 198.032 543.862 204.486 631.61 213.213C745.395 224.53 816.46 228.864 940.395 230.385Z" fill="#FDF1CF"/>
<path d="M536.6 125.548C536.66 124.55 536.661 124.55 536.661 124.55L536.664 124.55L536.676 124.551L536.721 124.554L536.902 124.565L537.612 124.607C538.238 124.645 539.163 124.7 540.36 124.771C542.754 124.912 546.235 125.115 550.584 125.363C559.283 125.859 571.453 126.532 585.338 127.245C613.112 128.671 647.739 130.252 675.18 130.875C730.543 132.132 762.134 131.739 817.657 130.875C876.478 129.959 913.229 128.288 964.234 125.97C974.123 125.52 984.548 125.047 995.774 124.549C1002.33 124.258 1007.03 124.099 1010.19 124.047C1011.76 124.02 1012.97 124.021 1013.84 124.045C1014.27 124.057 1014.64 124.076 1014.92 124.102C1015.18 124.126 1015.46 124.162 1015.68 124.234L1015.69 124.236C1015.76 124.26 1016.05 124.354 1016.26 124.627C1016.41 124.81 1016.52 125.082 1016.47 125.402C1016.43 125.69 1016.29 125.883 1016.2 125.981C1016.03 126.16 1015.84 126.25 1015.76 126.284C1015.65 126.332 1015.54 126.371 1015.43 126.403C1015.01 126.53 1014.35 126.661 1013.53 126.798C1011.87 127.076 1009.35 127.409 1006.34 127.771C1005.78 127.838 1005.21 127.907 1004.61 127.976C1005.84 127.89 1007.11 127.801 1008.4 127.71C1050.17 124.769 1127.12 119.128 1260.98 109.187C1327.93 104.215 1378.15 102.208 1414.8 102.505C1451.4 102.801 1474.55 105.396 1487.27 109.689C1493.59 111.824 1497.59 114.46 1499.21 117.686C1500.9 121.036 1499.87 124.639 1497.15 128.203C1494.43 131.763 1489.88 135.506 1483.96 139.355C1478.03 143.214 1470.67 147.224 1462.28 151.301C1428.75 167.603 1378.49 185.132 1336.66 198.575C1315.73 205.3 1296.9 211.007 1283.3 215.034C1276.5 217.047 1271.01 218.64 1267.21 219.729C1265.32 220.274 1263.85 220.693 1262.85 220.976C1262.35 221.118 1261.97 221.225 1261.71 221.297L1261.42 221.379L1261.35 221.399L1261.33 221.405C1261.33 221.405 1261.33 221.406 1261.29 221.28L1261.33 221.406L1261.22 221.435L1261.11 221.442L1261.06 220.443C1261.11 221.442 1261.11 221.442 1261.11 221.442L1261.11 221.442L1261.08 221.444L1260.97 221.45L1260.55 221.475C1260.18 221.496 1259.63 221.529 1258.9 221.57C1257.44 221.654 1255.29 221.777 1252.51 221.933C1246.94 222.244 1238.85 222.687 1228.75 223.213C1208.54 224.266 1180.29 225.654 1148.09 226.994C1083.69 229.673 1003.51 232.159 940.383 231.385C816.418 229.864 745.324 225.528 631.511 214.208C543.741 205.479 496.075 199.021 421.614 185.276C319.185 166.369 275.188 151.746 203.729 126.491C146.294 106.192 118.485 93.8969 80.8255 71.2756C64.2224 61.3025 48.3322 48.1492 36.6059 37.5059C30.7394 32.1812 25.9079 27.4782 22.542 24.1053C20.859 22.4188 19.5421 21.0645 18.6452 20.131C18.1967 19.6643 17.8532 19.3027 17.6214 19.0574C17.5055 18.9347 17.4175 18.8411 17.3583 18.7779L17.2912 18.7061L17.274 18.6877L17.2695 18.6829L17.2683 18.6816C17.268 18.6813 17.2678 18.6811 18 18M536.6 125.548C536.47 126.54 536.471 126.54 536.471 126.54L536.474 126.54L536.485 126.542L536.53 126.548L536.708 126.571L537.406 126.661C538.02 126.741 538.929 126.858 540.105 127.009C542.458 127.311 545.882 127.747 550.167 128.286C558.738 129.362 570.755 130.847 584.54 132.476C612.109 135.735 646.763 139.578 675.075 141.909C699.038 143.882 722.794 144.638 744.898 145.342C747.713 145.432 750.501 145.521 753.259 145.611C777.699 146.412 799.777 147.334 817.523 150.035C843.544 153.995 855.248 158.266 860.432 161.456C863.015 163.045 863.872 164.301 864.147 165.011C864.178 165.091 864.202 165.164 864.221 165.232L864.143 165.233C863.473 165.243 862.483 165.258 861.202 165.276C858.642 165.312 854.92 165.362 850.276 165.418C840.987 165.529 828.011 165.663 813.258 165.752C783.748 165.93 747.142 165.93 718.729 165.218C667.159 163.925 638.639 162.109 588.858 158.94L588.127 158.893C579.906 158.37 572.2 157.893 564.869 157.439C524.306 154.929 495.195 153.128 453.587 148.053C424.979 144.564 392.346 138.695 366.855 133.696C354.112 131.196 343.158 128.915 335.391 127.259C331.507 126.431 328.42 125.759 326.304 125.294C325.246 125.062 324.431 124.882 323.881 124.759C323.606 124.698 323.397 124.651 323.256 124.62L323.098 124.584L323.059 124.575L323.049 124.573L323.046 124.573C323.046 124.573 323.046 124.573 323.014 124.712L323.045 124.573L322.477 126.485L322.826 125.548C322.477 126.485 322.477 126.485 322.478 126.486L322.48 126.486L322.49 126.49L322.526 126.504L322.67 126.557C322.752 126.587 322.859 126.626 322.991 126.675C323.065 126.702 323.148 126.732 323.238 126.765C323.738 126.948 324.478 127.217 325.444 127.562C327.375 128.253 330.204 129.251 333.801 130.479C340.995 132.934 351.26 136.309 363.553 139.992C388.135 147.356 420.844 155.956 453.316 160.88C486.997 165.987 513.925 167.954 545.798 170.281C558.776 171.229 572.573 172.237 587.979 173.54C648.952 178.7 683.398 181.567 746.356 185.291C820.923 189.702 863.68 191.767 940.373 193.427C981.943 194.326 1035.4 194.326 1078.45 194.101C1099.98 193.989 1118.92 193.82 1132.46 193.68C1134.13 193.662 1135.72 193.645 1137.22 193.629C1132.93 194.171 1128 194.78 1122.66 195.418C1104.61 197.575 1081.87 200.058 1063.05 201.371C1026.13 203.946 976.682 203.947 936.441 203.302C916.326 202.98 898.519 202.497 885.742 202.094C879.353 201.892 874.222 201.711 870.688 201.58C868.922 201.515 867.554 201.462 866.628 201.426C866.166 201.407 865.813 201.393 865.577 201.384L865.309 201.373L865.242 201.37L865.225 201.369L865.221 201.369C865.22 201.369 865.22 201.369 865.178 202.368L865.22 201.369L865.217 201.369L865.214 201.44C865.216 201.369 865.216 201.369 865.215 201.369L865.209 201.369L865.185 201.368L865.09 201.364L864.71 201.349C864.375 201.336 863.875 201.316 863.219 201.289C861.906 201.237 859.968 201.158 857.465 201.053C852.459 200.844 845.194 200.533 836.16 200.124C818.092 199.307 792.946 198.101 764.638 196.543C708.015 193.428 638.76 188.911 588.174 183.299C518.77 175.6 482.096 169.95 421.976 158.908C342.77 144.359 305.673 133.997 243.937 115.552C187.464 98.6799 160.772 88.2813 117.367 69.5006C94.6294 59.6627 69.921 46.577 50.8854 35.9429C41.3702 30.6274 33.2777 25.9274 27.5645 22.5566C24.708 20.8713 22.4464 19.5183 20.8995 18.587C20.126 18.1213 19.5312 17.7611 19.13 17.5174C18.9294 17.3956 18.7772 17.3029 18.6753 17.2407L18.5604 17.1705L18.5316 17.1529L18.5245 17.1486L18.5228 17.1475C18.5224 17.1473 18.5222 17.1472 18 18M536.6 125.548L536.66 124.55L536.47 126.54L536.6 125.548ZM18 18L18.5222 17.1472L17.2678 18.6811L18 18Z" stroke="url(#paint1_radial_242_538)" stroke-width="2"/>
</g>
<defs>
<filter id="filter0_f_242_538" x="68.9617" y="26" width="1498.04" height="319" filterUnits="userSpaceOnUse" color-interpolation-filters="sRGB">
<feFlood flood-opacity="0" result="BackgroundImageFix"/>
<feBlend mode="normal" in="SourceGraphic" in2="BackgroundImageFix" result="shape"/>
<feGaussianBlur stdDeviation="30" result="effect1_foregroundBlur_242_538"/>
</filter>
<filter id="filter1_f_242_538" x="0.535645" y="0.294434" width="1516.5" height="248.234" filterUnits="userSpaceOnUse" color-interpolation-filters="sRGB">
<feFlood flood-opacity="0" result="BackgroundImageFix"/>
<feBlend mode="normal" in="SourceGraphic" in2="BackgroundImageFix" result="shape"/>
<feGaussianBlur stdDeviation="8" result="effect1_foregroundBlur_242_538"/>
</filter>
<radialGradient id="paint0_radial_242_538" cx="0" cy="0" r="1" gradientUnits="userSpaceOnUse" gradientTransform="translate(605.532 210.797) rotate(-9.37318) scale(604.036 162.251)">
<stop stop-color="#FEB3DB"/>
<stop offset="0.430878" stop-color="#FEA6E3"/>
<stop offset="1" stop-color="#DD7EF3"/>
</radialGradient>
<radialGradient id="paint1_radial_242_538" cx="0" cy="0" r="1" gradientUnits="userSpaceOnUse" gradientTransform="translate(946.782 157.029) rotate(-172.845) scale(737.895 152.448)">
<stop stop-color="#FEB3DB"/>
<stop offset="0.430878" stop-color="#FEA6E3"/>
<stop offset="1" stop-color="#DD7EF3"/>
</radialGradient>
</defs>
</svg>
