<svg aria-hidden="true" style="position: absolute; width: 0; height: 0; overflow: hidden;" version="1.1" xmlns="http://www.w3.org/2000/svg" xmlns:xlink="http://www.w3.org/1999/xlink">
<defs>
<symbol id="icon-back" viewBox="0 0 32 32">
<path fill="#fff" style="fill: var(--color1, #fff)" d="M17.787 25.333c-0.351-0-0.695-0.109-0.986-0.314s-0.52-0.496-0.654-0.837c-0.134-0.341-0.17-0.715-0.101-1.077s0.238-0.694 0.486-0.955l5.848-6.139-5.848-6.139c-0.17-0.172-0.305-0.378-0.398-0.605s-0.142-0.472-0.144-0.72c-0.002-0.248 0.043-0.493 0.132-0.722s0.221-0.437 0.388-0.612 0.365-0.314 0.583-0.407c0.218-0.094 0.452-0.141 0.688-0.139s0.469 0.054 0.686 0.151 0.413 0.24 0.576 0.418l7.104 7.457c0.333 0.35 0.52 0.824 0.52 1.318s-0.187 0.969-0.52 1.318l-7.104 7.457c-0.333 0.35-0.785 0.546-1.256 0.546z"></path>
<path fill="#fff" style="fill: var(--color1, #fff)" d="M7.131 25.333c-0.351-0-0.694-0.109-0.987-0.314s-0.52-0.496-0.654-0.837c-0.134-0.341-0.17-0.715-0.101-1.077s0.238-0.694 0.486-0.955l5.848-6.139-5.848-6.139c-0.17-0.172-0.305-0.378-0.398-0.605s-0.142-0.472-0.144-0.72c-0.002-0.248 0.043-0.493 0.132-0.722s0.221-0.437 0.388-0.612c0.167-0.175 0.365-0.314 0.583-0.407s0.452-0.141 0.688-0.139c0.236 0.002 0.469 0.054 0.686 0.151s0.413 0.24 0.576 0.418l7.104 7.457c0.333 0.35 0.52 0.824 0.52 1.318s-0.187 0.969-0.52 1.318l-7.104 7.457c-0.333 0.35-0.785 0.546-1.256 0.546z"></path>
</symbol>
<symbol id="icon-burger" viewBox="0 0 32 32">
<path fill="#fff" style="fill: var(--color1, #fff)" d="M25.412 9.333h-18.824c-0.333 0-0.652-0.14-0.887-0.39s-0.368-0.589-0.368-0.943 0.132-0.693 0.368-0.943c0.235-0.25 0.555-0.391 0.887-0.391h18.824c0.333 0 0.652 0.14 0.887 0.391s0.367 0.589 0.367 0.943c0 0.354-0.132 0.693-0.367 0.943s-0.555 0.39-0.887 0.39z"></path>
<path fill="#fff" style="fill: var(--color1, #fff)" d="M25.412 17.333h-18.824c-0.333 0-0.652-0.14-0.887-0.39s-0.368-0.589-0.368-0.943 0.132-0.693 0.368-0.943c0.235-0.25 0.555-0.39 0.887-0.39h18.824c0.333 0 0.652 0.14 0.887 0.39s0.367 0.589 0.367 0.943-0.132 0.693-0.367 0.943c-0.235 0.25-0.555 0.39-0.887 0.39z"></path>
<path fill="#fff" style="fill: var(--color1, #fff)" d="M25.412 25.333h-18.824c-0.333 0-0.652-0.14-0.887-0.39s-0.368-0.589-0.368-0.943 0.132-0.693 0.368-0.943c0.235-0.25 0.555-0.39 0.887-0.39h18.824c0.333 0 0.652 0.14 0.887 0.39s0.367 0.589 0.367 0.943c0 0.354-0.132 0.693-0.367 0.943s-0.555 0.39-0.887 0.39z"></path>
</symbol>
<symbol id="icon-goback" viewBox="0 0 80 64">
<path d="M4.408 27.477c-1.199 1.2-1.872 2.827-1.872 4.523s0.673 3.323 1.872 4.523l24.132 24.141c0.595 0.594 1.3 1.066 2.077 1.388s1.609 0.487 2.45 0.487 1.673-0.165 2.45-0.487c0.777-0.322 1.483-0.794 2.077-1.388s1.066-1.3 1.388-2.077c0.322-0.777 0.487-1.609 0.487-2.45s-0.165-1.673-0.487-2.45c-0.322-0.777-0.793-1.483-1.388-2.077l-13.21-13.21h49.216c1.697 0 3.325-0.674 4.525-1.875s1.875-2.828 1.875-4.525c0-1.697-0.675-3.325-1.875-4.526s-2.828-1.875-4.525-1.875h-49.216l13.21-13.21c1.2-1.201 1.874-2.829 1.874-4.526s-0.675-3.325-1.876-4.525-2.829-1.874-4.526-1.874c-1.698 0-3.325 0.675-4.525 1.876l-24.132 24.137z"></path>
</symbol>
<symbol id="icon-arrow" viewBox="0 0 48 32">
<path fill="#fff" style="fill: var(--color1, #fff)" d="M2.109 0.913c0.039-0.463-0.305-0.871-0.768-0.91s-0.871 0.305-0.91 0.768l1.678 0.142zM47.563 23.775c0.108-0.452-0.171-0.907-0.623-1.015l-7.371-1.765c-0.452-0.108-0.907 0.171-1.015 0.623s0.171 0.907 0.623 1.015l6.552 1.569-1.568 6.552c-0.108 0.452 0.171 0.907 0.623 1.015s0.907-0.171 1.015-0.623l1.765-7.371zM1.27 0.842c-0.839-0.071-0.839-0.071-0.839-0.070s-0 0.001-0 0.001-0 0.002-0 0.004-0.001 0.008-0.001 0.014c-0.001 0.011-0.002 0.028-0.004 0.048-0.003 0.042-0.007 0.102-0.011 0.179-0.009 0.155-0.020 0.381-0.028 0.668-0.016 0.574-0.020 1.397 0.026 2.402 0.091 2.007 0.38 4.753 1.176 7.704 1.592 5.899 5.245 12.71 13.479 15.939l0.615-1.568c-7.556-2.963-10.955-9.204-12.468-14.81-0.756-2.802-1.033-5.42-1.12-7.341-0.043-0.959-0.039-1.741-0.025-2.279 0.007-0.269 0.017-0.478 0.025-0.617 0.004-0.070 0.008-0.122 0.010-0.156 0.001-0.017 0.002-0.030 0.003-0.037 0-0.004 0.001-0.007 0.001-0.008s0-0.001 0-0.001 0 0 0 0-0 0-0.839-0.071zM15.068 27.731c8.124 3.186 16.166 2.31 22.136 0.666 2.989-0.823 5.475-1.843 7.216-2.658 0.871-0.408 1.557-0.765 2.027-1.022 0.235-0.128 0.417-0.232 0.541-0.304 0.062-0.036 0.109-0.064 0.142-0.084 0.016-0.010 0.029-0.018 0.038-0.023 0.005-0.003 0.008-0.005 0.011-0.006 0.001-0.001 0.003-0.001 0.003-0.002s0.001-0.001 0.001-0.001 0.001-0-0.44-0.718-0.44-0.718-0.44-0.718 0-0 0 0-0.001 0-0.001 0.001-0.003 0.002-0.006 0.004c-0.006 0.004-0.016 0.010-0.029 0.018-0.027 0.016-0.069 0.041-0.125 0.073-0.112 0.065-0.28 0.161-0.502 0.282-0.443 0.242-1.098 0.583-1.935 0.975-1.674 0.784-4.069 1.767-6.948 2.56-5.767 1.588-13.408 2.396-21.074-0.61l-0.615 1.568z"></path>
</symbol>
</defs>
</svg>
