<svg aria-hidden="true" style="position: absolute; width: 0; height: 0; overflow: hidden;" version="1.1" xmlns="http://www.w3.org/2000/svg" xmlns:xlink="http://www.w3.org/1999/xlink">
<defs>
<symbol id="icon-back" viewBox="0 0 32 32">
<path fill="#fff" style="fill: var(--color1, #fff)" d="M17.787 25.333c-0.351-0-0.695-0.109-0.986-0.314s-0.52-0.496-0.654-0.837c-0.134-0.341-0.17-0.715-0.101-1.077s0.238-0.694 0.486-0.955l5.848-6.139-5.848-6.139c-0.17-0.172-0.305-0.378-0.398-0.605s-0.142-0.472-0.144-0.72c-0.002-0.248 0.043-0.493 0.132-0.722s0.221-0.437 0.388-0.612 0.365-0.314 0.583-0.407c0.218-0.094 0.452-0.141 0.688-0.139s0.469 0.054 0.686 0.151 0.413 0.24 0.576 0.418l7.104 7.457c0.333 0.35 0.52 0.824 0.52 1.318s-0.187 0.969-0.52 1.318l-7.104 7.457c-0.333 0.35-0.785 0.546-1.256 0.546z"></path>
<path fill="#fff" style="fill: var(--color1, #fff)" d="M7.131 25.333c-0.351-0-0.694-0.109-0.987-0.314s-0.52-0.496-0.654-0.837c-0.134-0.341-0.17-0.715-0.101-1.077s0.238-0.694 0.486-0.955l5.848-6.139-5.848-6.139c-0.17-0.172-0.305-0.378-0.398-0.605s-0.142-0.472-0.144-0.72c-0.002-0.248 0.043-0.493 0.132-0.722s0.221-0.437 0.388-0.612c0.167-0.175 0.365-0.314 0.583-0.407s0.452-0.141 0.688-0.139c0.236 0.002 0.469 0.054 0.686 0.151s0.413 0.24 0.576 0.418l7.104 7.457c0.333 0.35 0.52 0.824 0.52 1.318s-0.187 0.969-0.52 1.318l-7.104 7.457c-0.333 0.35-0.785 0.546-1.256 0.546z"></path>
</symbol>
<symbol id="icon-burger" viewBox="0 0 32 32">
<path fill="#fff" style="fill: var(--color1, #fff)" d="M25.412 9.333h-18.824c-0.333 0-0.652-0.14-0.887-0.39s-0.368-0.589-0.368-0.943 0.132-0.693 0.368-0.943c0.235-0.25 0.555-0.391 0.887-0.391h18.824c0.333 0 0.652 0.14 0.887 0.391s0.367 0.589 0.367 0.943c0 0.354-0.132 0.693-0.367 0.943s-0.555 0.39-0.887 0.39z"></path>
<path fill="#fff" style="fill: var(--color1, #fff)" d="M25.412 17.333h-18.824c-0.333 0-0.652-0.14-0.887-0.39s-0.368-0.589-0.368-0.943 0.132-0.693 0.368-0.943c0.235-0.25 0.555-0.39 0.887-0.39h18.824c0.333 0 0.652 0.14 0.887 0.39s0.367 0.589 0.367 0.943-0.132 0.693-0.367 0.943c-0.235 0.25-0.555 0.39-0.887 0.39z"></path>
<path fill="#fff" style="fill: var(--color1, #fff)" d="M25.412 25.333h-18.824c-0.333 0-0.652-0.14-0.887-0.39s-0.368-0.589-0.368-0.943 0.132-0.693 0.368-0.943c0.235-0.25 0.555-0.39 0.887-0.39h18.824c0.333 0 0.652 0.14 0.887 0.39s0.367 0.589 0.367 0.943c0 0.354-0.132 0.693-0.367 0.943s-0.555 0.39-0.887 0.39z"></path>
</symbol>
</defs>
</svg>
